<?xml version="1.0" encoding="UTF-8" standalone="no"?>
<!-- Created with Inkscape (http://www.inkscape.org/) -->

<svg
   xmlns:dc="http://purl.org/dc/elements/1.1/"
   xmlns:cc="http://creativecommons.org/ns#"
   xmlns:rdf="http://www.w3.org/1999/02/22-rdf-syntax-ns#"
   xmlns:svg="http://www.w3.org/2000/svg"
   xmlns="http://www.w3.org/2000/svg"
   xmlns:sodipodi="http://sodipodi.sourceforge.net/DTD/sodipodi-0.dtd"
   xmlns:inkscape="http://www.inkscape.org/namespaces/inkscape"
   width="50"
   height="50"
   viewBox="0 0 13.229166 13.229167"
   version="1.1"
   id="svg8"
   inkscape:version="0.92.2 5c3e80d, 2017-08-06"
   sodipodi:docname="jamie_logo006_green.svg">
  <defs
     id="defs2" />
  <sodipodi:namedview
     id="base"
     pagecolor="#ffffff"
     bordercolor="#666666"
     borderopacity="1.0"
     inkscape:pageopacity="0.0"
     inkscape:pageshadow="2"
     inkscape:zoom="11.24"
     inkscape:cx="35.53436"
     inkscape:cy="23.007075"
     inkscape:document-units="mm"
     inkscape:current-layer="layer1"
     showgrid="false"
     units="px"
     inkscape:window-width="1440"
     inkscape:window-height="775"
     inkscape:window-x="0"
     inkscape:window-y="1"
     inkscape:window-maximized="1" />
  <metadata
     id="metadata5">
    <rdf:RDF>
      <cc:Work
         rdf:about="">
        <dc:format>image/svg+xml</dc:format>
        <dc:type
           rdf:resource="http://purl.org/dc/dcmitype/StillImage" />
        <dc:title></dc:title>
      </cc:Work>
    </rdf:RDF>
  </metadata>
  <g
     inkscape:groupmode="layer"
     id="layer3"
     inkscape:label="Layer 3">
    <path
       sodipodi:type="star"
       style="fill:#000000;stroke-width:0.26458332"
       id="path366"
       sodipodi:sides="16"
       sodipodi:cx="3.1047289"
       sodipodi:cy="3.4269543"
       sodipodi:r1="2.7212245"
       sodipodi:r2="2.4517388"
       sodipodi:arg1="0.52558379"
       sodipodi:arg2="0.72193333"
       inkscape:flatsided="true"
       inkscape:rounded="0"
       inkscape:randomized="0"
       d="M 5.458673,4.7922418 4.7570168,5.5891309 3.8038147,6.0568482 2.7441831,6.124188 1.7394414,5.7808984 0.94255228,5.0792421 0.47483499,4.12604 0.40749522,3.0664084 0.75078483,2.0616667 1.4524411,1.2647776 2.4056432,0.79706033 3.4652748,0.72972055 4.4700165,1.0730102 l 0.7968891,0.7016562 0.4677173,0.9532021 0.06734,1.0596316 z"
       inkscape:transform-center-x="-0.29914112"
       inkscape:transform-center-y="0.063320635"
       transform="matrix(2.2138591,-1.0356172,1.0409294,2.2195737,-3.7983998,2.2128295)" />
  </g>
  <g
     inkscape:groupmode="layer"
     id="layer2"
     inkscape:label="Layer 2">
    <path
       sodipodi:type="star"
       style="fill:#f9f9f9;stroke-width:0.26458332"
       id="path363"
       sodipodi:sides="16"
       sodipodi:cx="6.5910439"
       sodipodi:cy="6.8028989"
       sodipodi:r1="4.5601554"
       sodipodi:r2="4.1085582"
       sodipodi:arg1="0.86944876"
       sodipodi:arg2="1.0657983"
       inkscape:flatsided="true"
       inkscape:rounded="0"
       inkscape:randomized="0"
       d="M 9.5334741,10.286736 7.9762881,11.147564 6.2082113,11.346956 4.4984173,10.854557 3.1072067,9.745329 2.2463787,8.1881431 2.0469867,6.4200662 2.5393862,4.7102722 3.6486138,3.3190616 5.2057998,2.4582337 6.9738766,2.2588416 l 1.709794,0.4923995 1.3912104,1.1092277 0.860828,1.5571859 0.199392,1.7680768 -0.492399,1.7097941 z"
       inkscape:transform-center-x="-0.27789522"
       inkscape:transform-center-y="0.040378363"
       transform="matrix(1.4044674,0,0,1.413852,-2.6271882,-3.0634963)" />
  </g>
  <g
     inkscape:label="Layer 1"
     inkscape:groupmode="layer"
     id="layer1"
     transform="translate(0,-283.77082)">
    <text
       xml:space="preserve"
       style="font-style:normal;font-weight:normal;font-size:10.58333302px;line-height:1.25;font-family:sans-serif;letter-spacing:0px;word-spacing:0px;fill:#000000;fill-opacity:1;stroke:none;stroke-width:0.26458332"
       x="6.0496368"
       y="290.64435"
       id="text304"><tspan
         sodipodi:role="line"
         id="tspan302"
         x="6.0496368"
         y="300.00812"
         style="stroke-width:0.26458332" /></text>
    <path
       style="fill:none;stroke:#000000;stroke-width:0.26458332px;stroke-linecap:butt;stroke-linejoin:miter;stroke-opacity:1"
       d="M 0.52777749,292.28415 11.522654,286.16546 Z"
       id="path444"
       inkscape:connector-curvature="0" />
    <path
       style="fill:none;stroke:#000000;stroke-width:0.26458332px;stroke-linecap:butt;stroke-linejoin:miter;stroke-opacity:1"
       d="m 3.6906922,296.05406 9.3210058,-5.18718 z"
       id="path446"
       inkscape:connector-curvature="0" />
    <path
       style="fill:none;stroke:#000000;stroke-width:0.26458332px;stroke-linecap:butt;stroke-linejoin:miter;stroke-opacity:1"
       d="m 0.93929688,287.36695 7.63595152,9.10138 z"
       id="path448"
       inkscape:connector-curvature="0" />
    <path
       style="fill:none;stroke:#000000;stroke-width:0.26458332px;stroke-linecap:butt;stroke-linejoin:miter;stroke-opacity:1"
       d="m 4.6841878,284.1829 7.6359512,9.10138 z"
       id="path450"
       inkscape:connector-curvature="0" />
    <path
       style="fill:none;stroke:#000000;stroke-width:0.26458332px;stroke-linecap:butt;stroke-linejoin:miter;stroke-opacity:1"
       d="M 1.7367823,294.48578 12.731659,288.36709 Z"
       id="path454"
       inkscape:connector-curvature="0" />
    <path
       style="fill:none;stroke:#000000;stroke-width:0.26458332px;stroke-linecap:butt;stroke-linejoin:miter;stroke-opacity:1"
       d="M 0.24773788,289.78435 9.568744,284.59717 Z"
       id="path456"
       inkscape:connector-curvature="0" />
    <path
       style="fill:none;stroke:#000000;stroke-width:0.26458332px;stroke-linecap:butt;stroke-linejoin:miter;stroke-opacity:1"
       d="M 0.93929686,287.36695 7.1673941,283.90099 Z"
       id="path458"
       inkscape:connector-curvature="0" />
    <path
       style="fill:none;stroke:#000000;stroke-width:0.26458332px;stroke-linecap:butt;stroke-linejoin:miter;stroke-opacity:1"
       d="m 6.092042,296.75024 6.228097,-3.46596 z"
       id="path460"
       inkscape:connector-curvature="0" />
    <path
       style="fill:none;stroke:#000000;stroke-width:0.26458332px;stroke-linecap:butt;stroke-linejoin:miter;stroke-opacity:1"
       d="M 10.762265,295.25125 2.3570388,285.26146 Z"
       id="path462"
       inkscape:connector-curvature="0" />
    <path
       style="fill:none;stroke:#000000;stroke-width:0.26458332px;stroke-linecap:butt;stroke-linejoin:miter;stroke-opacity:1"
       d="M 0.24773788,289.78435 6.092042,296.75024 Z"
       id="path464"
       inkscape:connector-curvature="0" />
    <path
       style="fill:#ff0000;stroke:#000000;stroke-width:0.26458332px;stroke-linecap:butt;stroke-linejoin:miter;stroke-opacity:1"
       d="m 7.1673941,283.90099 5.8443039,6.96589 z"
       id="path468"
       inkscape:connector-curvature="0" />
    <path
       style="fill:#ff0000;stroke-width:0.08896797"
       d="m 16.2494,40.129245 c -1.379519,-1.645609 -2.499103,-3.000381 -2.487963,-3.010606 0.149811,-0.1375 5.986096,-3.308487 6.034405,-3.27863 0.08434,0.05212 4.921418,5.812737 4.949837,5.894901 0.01763,0.05098 -1.459157,0.888765 -5.311902,3.013464 l -0.676161,0.372887 z"
       id="path470"
       inkscape:connector-curvature="0"
       transform="matrix(0.26458333,0,0,0.26458333,0,283.77082)" />
    <path
       style="fill:#ff0000;stroke-width:0.08896797"
       d="m 20.422709,18.465345 c -0.876267,-1.039813 -1.996911,-2.370403 -2.49032,-2.956866 -0.493409,-0.586464 -0.868489,-1.093616 -0.833511,-1.127004 0.126304,-0.120566 7.122195,-3.989973 7.213873,-3.989973 0.05172,0 1.110205,1.211076 2.352197,2.691281 1.241992,1.480204 2.361131,2.813199 2.486974,2.962209 l 0.228807,0.270929 -3.635088,2.019997 c -1.999299,1.110998 -3.65638,2.019996 -3.682403,2.019996 -0.02602,0 -0.764261,-0.850756 -1.640529,-1.890569 z"
       id="path472"
       inkscape:connector-curvature="0"
       transform="matrix(0.26458333,0,0,0.26458333,0,283.77082)" />
    <path
       style="fill:#ff0000;stroke-width:0.08896797"
       d="m 1.2816908,21.785511 c 0,-0.154412 2.0594106,-7.339133 2.1228075,-7.405895 0.049412,-0.05204 3.5812966,4.090342 3.6362896,4.26483 0.016487,0.05231 -5.3733364,3.098922 -5.6772824,3.209096 -0.044998,0.01631 -0.081815,-0.0143 -0.081815,-0.06803 z"
       id="path474"
       inkscape:connector-curvature="0"
       transform="matrix(0.26458333,0,0,0.26458333,0,283.77082)" />
    <path
       style="fill:#ffd42a;stroke-width:0.08896797"
       d="m 31.886673,46.529211 c -0.51379,-0.620847 -0.934164,-1.158513 -0.934164,-1.194813 0,-0.0363 1.619678,-0.967462 3.599284,-2.069248 2.873579,-1.599342 3.621211,-1.980674 3.708039,-1.891294 0.05982,0.06157 0.510248,0.591422 1.000962,1.177442 l 0.892207,1.06549 -0.240816,0.147168 c -0.445847,0.272467 -6.862507,3.819346 -6.977519,3.8569 -0.06326,0.02066 -0.528802,-0.464271 -1.047993,-1.091645 z"
       id="path476"
       inkscape:connector-curvature="0"
       transform="matrix(0.26458333,0,0,0.26458333,0,283.77082)" />
    <path
       style="fill:#ffff00;stroke:#41dd34;stroke-width:0.26458332px;stroke-linecap:butt;stroke-linejoin:miter;stroke-opacity:1"
       d="M 1.7367823,294.48578 7.1673941,283.90099 Z"
       id="path478"
       inkscape:connector-curvature="0" />
    <path
       style="fill:none;stroke:#000000;stroke-width:0.26458332px;stroke-linecap:butt;stroke-linejoin:miter;stroke-opacity:1"
       d="M 11.522654,286.16546 Z"
       id="path480"
       inkscape:connector-curvature="0" />
    <path
       style="fill:none;stroke:#41dd34;stroke-width:0.26458332px;stroke-linecap:butt;stroke-linejoin:miter;stroke-opacity:1"
       d="m 6.092042,296.75024 5.430612,-10.58478 z"
       id="path482"
       inkscape:connector-curvature="0" />
    <path
       style="fill:#ff0000;stroke:#41dd34;stroke-width:0.26458332px;stroke-linecap:butt;stroke-linejoin:miter;stroke-opacity:1"
       d="M 0.93929688,287.36695 13.011698,290.86688 Z"
       id="path484"
       inkscape:connector-curvature="0" />
    <path
       style="fill:none;stroke:#41dd34;stroke-width:0.26458332px;stroke-linecap:butt;stroke-linejoin:miter;stroke-opacity:1"
       d="M 0.24773788,289.78435 12.320139,293.28428 Z"
       id="path486"
       inkscape:connector-curvature="0" />
    <path
       style="fill:#808080;stroke-width:0.08896797"
       d="M 1.5374469,27.722596 C 1.3031288,25.617479 1.1237031,23.883164 1.1387232,23.86856 c 0.022224,-0.02161 1.3053784,1.492205 4.4535605,5.254129 l 0.2447566,0.292472 -1.7572121,0.97431 C 3.1133615,30.925342 2.2418104,31.405698 2.143048,31.45693 1.9672057,31.548146 1.9546402,31.470663 1.5374469,27.722596 Z"
       id="path1293"
       inkscape:connector-curvature="0"
       transform="matrix(0.26458333,0,0,0.26458333,0,283.77082)" />
    <path
       style="fill:#808080;stroke-width:0.08896797"
       d="M 34.963878,9.0293942 C 33.648195,7.4621304 32.521484,6.1095018 32.460076,6.023553 c -0.101,-0.1413635 0.07596,-0.2601997 1.855013,-1.2457426 1.081665,-0.5992094 2.018883,-1.141691 2.082707,-1.2055148 0.09541,-0.095412 0.695355,0.3495161 3.374511,2.5025944 3.162612,2.5416041 3.252501,2.6224075 3.055634,2.7467908 -0.111559,0.070484 -1.388377,0.7872077 -2.837372,1.5927182 l -2.634539,1.464566 z"
       id="path1295"
       inkscape:connector-curvature="0"
       transform="matrix(0.26458333,0,0,0.26458333,0,283.77082)" />
    <path
       style="fill:#ffcc00;stroke-width:0.08896797"
       d="m 31.119796,30.919372 c -0.214448,-0.06864 -0.547732,-0.392708 -1.216751,-1.183107 l -0.921403,-1.088574 2.650568,-1.476849 c 1.457812,-0.812267 2.676914,-1.476849 2.709115,-1.476849 0.0322,0 -0.552962,1.200083 -1.300365,2.666853 -0.895635,1.757674 -1.40441,2.664501 -1.492365,2.659956 -0.0734,-0.0038 -0.266358,-0.04944 -0.428799,-0.10143 z"
       id="path1297"
       inkscape:connector-curvature="0"
       transform="matrix(0.26458333,0,0,0.26458333,0,283.77082)" />
    <path
       style="fill:#ffcc00;stroke-width:0.08896797"
       d="M 10.910268,7.1635114 C 10.370302,6.5221225 9.9588322,5.9670293 9.9958903,5.9299711 10.032948,5.8929129 11.678521,4.9628079 13.652718,3.8630709 l 3.589449,-1.9995216 0.979985,1.1578455 c 0.626407,0.7400951 0.949155,1.188675 0.894538,1.243293 -0.047,0.046996 -1.691772,0.9808436 -3.655057,2.0752166 l -3.56961,1.9897689 z"
       id="path1299"
       inkscape:connector-curvature="0"
       transform="matrix(0.26458333,0,0,0.26458333,0,283.77082)" />
    <path
       style="fill:#ffcc00;stroke-width:0.08896797"
       d="M 8.0610502,24.22858 C 5.4921,23.482949 3.1542704,22.804222 2.8658733,22.720297 l -0.5243584,-0.152592 2.734157,-1.517474 c 2.2938946,-1.273126 2.7526689,-1.49776 2.8491212,-1.395042 0.5481116,0.583722 4.8553369,5.802659 4.8343499,5.857637 -0.015,0.0393 -2.129143,-0.538615 -4.6980928,-1.284246 z"
       id="path1301"
       inkscape:connector-curvature="0"
       transform="matrix(0.26458333,0,0,0.26458333,0,283.77082)" />
    <path
       style="fill:#ffcc00;stroke-width:0.08896797"
       d="M 10.507669,43.609556 C 8.8439684,42.263826 7.3877534,41.092236 7.2716362,41.006023 L 7.060514,40.849273 9.8786882,39.276971 c 1.5499958,-0.864766 2.8460688,-1.569895 2.8801618,-1.566953 0.08698,0.0075 4.919722,5.802194 4.929765,5.911021 0.0045,0.04893 -0.859459,0.572173 -1.919944,1.162758 -1.060485,0.590584 -1.97542,1.121056 -2.03319,1.178825 -0.05777,0.05777 -0.127055,0.102489 -0.153968,0.09938 -0.02691,-0.0031 -1.410142,-1.106712 -3.073844,-2.452443 z"
       id="path1303"
       inkscape:connector-curvature="0"
       transform="matrix(0.26458333,0,0,0.26458333,0,283.77082)" />
    <path
       style="fill:#ffcc00;stroke-width:0.08896797"
       d="m 42.253381,17.706052 c -0.725697,-0.866864 -1.371481,-1.64288 -1.435077,-1.72448 -0.131938,-0.169291 -0.223839,0.03095 1.781662,-3.88205 l 1.244911,-2.4289898 1.986935,3.6244118 1.986935,3.624412 -1.662656,0.921923 c -0.914461,0.507057 -1.869792,1.03869 -2.122959,1.181406 l -0.460302,0.259483 z"
       id="path1305"
       inkscape:connector-curvature="0"
       transform="matrix(0.26458333,0,0,0.26458333,0,283.77082)" />
    <path
       style="fill:#4d4d4d;stroke:#e92929;stroke-width:0.08896797;stroke-opacity:1"
       d="m 28.896478,42.952266 c -0.694361,-0.826164 -1.262474,-1.546999 -1.262474,-1.601855 0,-0.142394 1.135067,-2.355992 1.316515,-2.567454 0.0833,-0.09708 1.032239,-0.663301 2.108752,-1.258266 1.076512,-0.594965 2.12424,-1.178011 2.328284,-1.295659 l 0.370989,-0.213904 1.840343,2.184743 c 1.012189,1.201609 1.826116,2.198437 1.808726,2.215173 -0.02945,0.02834 -6.661749,3.72916 -7.065406,3.942489 -0.166391,0.08794 -0.299437,-0.04138 -1.445729,-1.405267 z"
       id="path1307"
       inkscape:connector-curvature="0"
       transform="matrix(0.26458333,0,0,0.26458333,0,283.77082)" />
  </g>
</svg>
